<svg width="425" height="1728" viewBox="0 0 425 1728" fill="none" xmlns="http://www.w3.org/2000/svg">
<g clip-path="url(#clip0_417_14)">
<rect width="425" height="1728" fill="#F5F5DC"/>
<rect x="-0.405518" y="713" width="145.189" height="145.189" transform="rotate(30 -0.405518 713)" fill="#004225" fill-opacity="0.8"/>
<path d="M371.413 892.24L405.276 765.863L497.791 858.378L371.413 892.24Z" fill="#004225" fill-opacity="0.8"/>
<path d="M-68.524 1069.59L-1.8814 954.166L64.7612 1069.59L-68.524 1069.59Z" fill="#FFB000" fill-opacity="0.6"/>
<rect x="-14.3306" y="1262" width="114.634" height="114.634" transform="rotate(15 -14.3306 1262)" fill="#004225" fill-opacity="0.8"/>
<rect x="312" y="1354.26" width="130.524" height="130.524" transform="rotate(-30 312 1354.26)" fill="#FFB000" fill-opacity="0.8"/>
<rect x="-0.405518" y="-73" width="145.189" height="145.189" transform="rotate(30 -0.405518 -73)" fill="#004225" fill-opacity="0.8"/>
<path d="M371.413 169.24L405.276 42.8628L497.791 135.378L371.413 169.24Z" fill="#004225" fill-opacity="0.8"/>
<path d="M371.413 1674.24L405.276 1547.86L497.791 1640.38L371.413 1674.24Z" fill="#004225" fill-opacity="0.8"/>
<path d="M-68.524 346.595L-1.8814 231.166L64.7612 346.595L-68.524 346.595Z" fill="#FFB000" fill-opacity="0.6"/>
<path d="M-68.524 1730.59L-1.8814 1615.17L64.7612 1730.59L-68.524 1730.59Z" fill="#FFB000" fill-opacity="0.6"/>
<rect x="-14.3306" y="539" width="114.634" height="114.634" transform="rotate(15 -14.3306 539)" fill="#004225" fill-opacity="0.8"/>
<rect x="312" y="631.262" width="130.524" height="130.524" transform="rotate(-30 312 631.262)" fill="#FFB000" fill-opacity="0.8"/>
</g>
<defs>
<clipPath id="clip0_417_14">
<rect width="425" height="1728" fill="white"/>
</clipPath>
</defs>
</svg>
